<?xml version="1.0" encoding="UTF-8"?>
<svg xmlns="http://www.w3.org/2000/svg" width="220" height="60" viewBox="0 0 220 60">
  <defs>
    <linearGradient id="gold" x1="0" y1="0" x2="1" y2="1">
      <stop offset="0" stop-color="#D6B25E"/>
      <stop offset="1" stop-color="#F2D58C"/>
    </linearGradient>
  </defs>
  <g transform="translate(0,6)">
    <g transform="translate(0,8)">
      <path d="M18 18c9-10 22-12 34-6" fill="none" stroke="url(#gold)" stroke-width="4" stroke-linecap="round"/>
      <path d="M18 18c8 10 23 14 36 10" fill="none" stroke="#2B67F6" stroke-width="4" stroke-linecap="round" opacity="0.9"/>
      <path d="M42 18l12 4 4 12 3-2-3-10 7 2c1 .3 2.3.1 3-.6l4-3-18-6-5-12-3 2 6 9-9-3-1 3z"
            fill="#0B1020" opacity="0.9"/>
    </g>
    <text x="78" y="30" font-family="Inter, Arial, sans-serif" font-size="20" font-weight="800" fill="#0B1020">The Store Flight</text>
    <text x="78" y="48" font-family="Inter, Arial, sans-serif" font-size="12" font-weight="600" fill="#6B7280">Billets • Hôtels • Visa • eVisa</text>
  </g>
</svg>
